<svg width="33" height="24" viewBox="0 0 33 24" fill="none" xmlns="http://www.w3.org/2000/svg">
<path d="M29.6556 1.2343C26.3685 -0.878302 21.9718 0.0805495 19.854 3.36509L16.4265 8.69467L13.116 3.35729C11.8115 1.25508 9.55599 0 7.08739 0C5.77513 0 4.48107 0.368987 3.34551 1.06799C0.0271908 3.12862 -0.996637 7.51234 1.064 10.8385L7.14975 20.6479C9.07266 23.7427 13.0952 24.8627 16.3641 23.236C17.349 23.7375 18.4508 24 19.5603 24C21.9925 24 24.2299 22.7839 25.5421 20.7466L31.7864 11.0385C32.5244 9.88999 32.9142 8.56735 32.9142 7.21092C32.9142 4.78649 31.6955 2.55175 29.6556 1.2343ZM6.47413 6.59766C5.94403 7.07319 5.89207 7.89173 6.27405 8.48939L14.2957 20.9883C12.5079 21.4742 10.5694 20.7363 9.57938 19.1408L3.49362 9.33391C2.26192 7.34603 2.87257 4.72932 4.85005 3.50022C5.53087 3.07926 6.30523 2.85838 7.08739 2.85838C8.56335 2.85838 9.90939 3.60936 10.6889 4.86444L16.3849 14.045L22.2576 4.91122C23.5231 2.94673 26.1502 2.37505 28.1095 3.63534C29.3308 4.42269 30.0584 5.76094 30.0584 7.21092C30.0584 8.01646 29.8245 8.80641 29.3854 9.49242L23.1411 19.2005C23.0527 19.3382 22.9566 19.4682 22.8553 19.5929C21.1688 21.6535 17.8843 21.2845 16.4447 19.042L8.6413 6.8835C8.17357 6.15331 7.14975 5.9922 6.47413 6.59766Z" fill="#7ECEA5"/>
<mask id="mask0_6496_32165" style="mask-type:luminance" maskUnits="userSpaceOnUse" x="15" y="6" width="13" height="17">
<path d="M24.4339 6.71344L15.3754 20.4752C15.1649 20.7949 15.0922 21.1742 15.1701 21.5484C15.2481 21.9226 15.4663 22.2422 15.7834 22.4527C16.0172 22.606 16.2875 22.6866 16.5681 22.6866C17.0515 22.6866 17.4984 22.4449 17.7635 22.0422L26.8193 8.28035C27.0298 7.96073 27.1026 7.58135 27.0246 7.20456C26.9466 6.83037 26.7284 6.51075 26.4114 6.30027C26.1697 6.14176 25.8968 6.06641 25.6292 6.06641C25.1641 6.06641 24.7067 6.29248 24.4313 6.71084" fill="white"/>
</mask>
<g mask="url(#mask0_6496_32165)">
<path d="M18.7296 0.545052L7.45801 17.6523L23.4695 28.202L34.7411 11.0947L18.7296 0.545052Z" fill="url(#paint0_linear_6496_32165)"/>
</g>
<defs>
<linearGradient id="paint0_linear_6496_32165" x1="14.8936" y1="22.2854" x2="23.1885" y2="9.69592" gradientUnits="userSpaceOnUse">
<stop stop-color="#7ECEA5"/>
<stop offset="1" stop-color="#7ECEA5"/>
</linearGradient>
</defs>
</svg>
