<svg width="20" height="20" viewBox="0 0 20 20" fill="none" xmlns="http://www.w3.org/2000/svg">
<path d="M16.2267 10.4934C16.2133 8.49336 17.8133 7.52669 17.8933 7.47336C16.9467 6.12003 15.5 5.93336 14.98 5.91336C13.7533 5.78669 12.5667 6.68003 11.94 6.68003C11.3 6.68003 10.3267 5.92669 9.29333 5.94669C7.94667 5.96669 6.69333 6.76669 6.01333 7.97336C4.62 10.4267 5.65333 14.0934 6.98667 16.1067C7.65333 17.0934 8.43333 18.1934 9.46 18.1534C10.4667 18.1067 10.84 17.4867 12.0467 17.4867C13.24 17.4867 13.58 18.1534 14.6333 18.1334C15.7133 18.1067 16.38 17.1334 17.02 16.1334C17.7867 15.0067 18.08 13.9067 18.0933 13.8467C18.0667 13.8334 16.2433 13.1067 16.2267 10.4934ZM14.2467 4.59336C14.78 3.95336 15.1533 3.06669 15.06 2.16669C14.2933 2.20003 13.36 2.68669 12.8 3.31336C12.3 3.86669 11.84 4.77336 11.9467 5.64003C12.8 5.70669 13.6867 5.21336 14.2467 4.59336Z" fill="black"/>
</svg>
