<svg width="33" height="25" viewBox="0 0 33 25" fill="none" xmlns="http://www.w3.org/2000/svg">
<path d="M29.733 1.23752C26.4372 -0.880593 22.0291 0.0807596 19.9057 3.37387L16.4693 8.71735L13.1502 3.36605C11.8423 1.25836 9.58091 0 7.10587 0C5.7902 0 4.49275 0.36995 3.35424 1.07078C0.0272617 3.13678 -0.999236 7.53194 1.06677 10.8667L7.1684 20.7018C9.09633 23.8047 13.1293 24.9276 16.4068 23.2966C17.3942 23.7995 18.4989 24.0626 19.6113 24.0626C22.0499 24.0626 24.2931 22.8433 25.6088 20.8008L31.8693 11.0673C32.6092 9.91579 33 8.58969 33 7.22972C33 4.79897 31.7781 2.55841 29.733 1.23752ZM6.49102 6.61487C5.95954 7.09164 5.90743 7.91231 6.29041 8.51153L14.333 21.043C12.5405 21.5302 10.597 20.7903 9.60436 19.1907L3.50273 9.35825C2.26782 7.36519 2.88007 4.74166 4.8627 3.50935C5.54529 3.08729 6.32168 2.86584 7.10587 2.86584C8.58569 2.86584 9.93523 3.61877 10.7168 4.87713L16.4277 14.0817L22.3156 4.92403C23.5844 2.95441 26.2184 2.38125 28.1828 3.64482C29.4073 4.43423 30.1368 5.77596 30.1368 7.22972C30.1368 8.03737 29.9023 8.82938 29.462 9.51718L23.2015 19.2506C23.1129 19.3887 23.0165 19.5189 22.9149 19.644C21.224 21.71 17.9309 21.3401 16.4876 19.0917L8.66384 6.90145C8.19489 6.16936 7.1684 6.00783 6.49102 6.61487Z" fill="#7ECEA5"/>
<mask id="mask0_6945_93966" style="mask-type:luminance" maskUnits="userSpaceOnUse" x="15" y="6" width="13" height="17">
<path d="M24.4972 6.73075L15.4151 20.5284C15.2041 20.8489 15.1311 21.2293 15.2093 21.6044C15.2874 21.9796 15.5063 22.3001 15.8241 22.5111C16.0586 22.6648 16.3295 22.7456 16.6109 22.7456C17.0955 22.7456 17.5436 22.5033 17.8094 22.0994L26.8888 8.30175C27.0999 7.9813 27.1728 7.60093 27.0947 7.22316C27.0165 6.84799 26.7977 6.52754 26.4798 6.31651C26.2375 6.15758 25.964 6.08203 25.6956 6.08203C25.2293 6.08203 24.7707 6.3087 24.4946 6.72815" fill="white"/>
</mask>
<g mask="url(#mask0_6945_93966)">
<path d="M18.7776 0.539498L7.47656 17.6914L23.5298 28.2685L34.8308 11.1166L18.7776 0.539498Z" fill="url(#paint0_linear_6945_93966)"/>
</g>
<defs>
<linearGradient id="paint0_linear_6945_93966" x1="14.9315" y1="22.3366" x2="23.2481" y2="9.71423" gradientUnits="userSpaceOnUse">
<stop stop-color="#7ECEA5"/>
<stop offset="1" stop-color="#7ECEA5"/>
</linearGradient>
</defs>
</svg>
