<svg width="234" height="42" viewBox="0 0 234 42" fill="none" xmlns="http://www.w3.org/2000/svg">
<path d="M51.2421 2.13275C45.5622 -1.51762 37.9651 0.139182 34.3057 5.81455L28.3834 15.0236L22.6631 5.80108C20.4092 2.16867 16.5118 0 12.2463 0C9.97888 0 7.74286 0.637575 5.78072 1.84539C0.046983 5.40596 -1.72209 12.9806 1.83848 18.7278L12.3541 35.6776C15.6767 41.0252 22.6272 42.9604 28.2757 40.1496C29.9774 41.0162 31.8811 41.4697 33.7984 41.4697C38.001 41.4697 41.8669 39.3684 44.1344 35.8482L54.9239 19.0735C56.199 17.089 56.8725 14.8036 56.8725 12.4598C56.8725 8.27059 54.7667 4.40919 51.2421 2.13275ZM11.1867 11.4001C10.2707 12.2218 10.1809 13.6361 10.841 14.6688L24.7016 36.2658C21.6125 37.1054 18.2629 35.8303 16.5522 33.0734L6.03664 16.1281C3.90838 12.6932 4.96353 8.17181 8.38043 6.04804C9.55681 5.32066 10.8948 4.93901 12.2463 4.93901C14.7967 4.93901 17.1225 6.23662 18.4695 8.4053L28.3116 24.2685L38.459 8.48611C40.6456 5.09167 45.185 4.10386 48.5705 6.28152C50.6808 7.64199 51.938 9.95435 51.938 12.4598C51.938 13.8517 51.5339 15.2166 50.7751 16.402L39.9856 33.1767C39.8329 33.4146 39.6668 33.6391 39.4917 33.8547C36.5777 37.4152 30.9023 36.7777 28.4148 32.9028L14.9313 11.894C14.1231 10.6323 12.3541 10.354 11.1867 11.4001Z" fill="#7ECEA5"/>
<mask id="mask0_5414_98428" style="mask-type:luminance" maskUnits="userSpaceOnUse" x="26" y="10" width="21" height="30">
<path d="M42.2187 11.5985L26.5665 35.3776C26.2029 35.9298 26.0771 36.5854 26.2118 37.2319C26.3465 37.8785 26.7237 38.4308 27.2715 38.7945C27.6756 39.0594 28.1425 39.1986 28.6275 39.1986C29.4626 39.1986 30.2349 38.781 30.6929 38.085L46.3405 14.306C46.7042 13.7537 46.8299 13.0981 46.6952 12.4471C46.5605 11.8005 46.1834 11.2483 45.6356 10.8846C45.218 10.6107 44.7466 10.4805 44.2841 10.4805C43.4804 10.4805 42.6901 10.8711 42.2142 11.594" fill="white"/>
</mask>
<g mask="url(#mask0_5414_98428)">
<path d="M32.363 0.940233L12.8867 30.5L40.5531 48.7287L60.0293 19.169L32.363 0.940233Z" fill="url(#paint0_linear_5414_98428)"/>
</g>
<path d="M70.4325 14.4688L74.8237 28.5853L79.8255 14.4688H85.1148L90.0269 28.5853L94.5124 14.4688H100.839L92.9543 35.7155H87.3329L82.4253 21.5001L77.5132 35.7155H71.8468L64.0566 14.4688H70.4325Z" fill="#1D4835"/>
<path d="M102.111 8.56324C102.111 7.52605 102.466 6.64151 103.175 5.91862C103.885 5.19573 104.742 4.83203 105.748 4.83203C106.754 4.83203 107.67 5.19573 108.393 5.91862C109.116 6.64151 109.479 7.52605 109.479 8.56324C109.479 9.60043 109.116 10.4266 108.393 11.136C107.67 11.8454 106.785 12.2001 105.748 12.2001C104.774 12.2001 103.921 11.8365 103.198 11.1136C102.475 10.3907 102.111 9.54206 102.111 8.56324ZM108.819 35.7143H102.776V14.4676H108.819V35.7143Z" fill="#1D4835"/>
<path d="M130.606 16.9685C132.654 14.9884 135.5 13.9961 139.151 13.9961C141.072 13.9961 142.761 14.2565 144.224 14.7729C145.688 15.2937 146.766 15.9223 147.457 16.6632C148.149 17.404 148.714 18.1494 149.159 18.9037C149.599 19.658 149.85 20.2911 149.913 20.7895L150.052 21.5932H143.865C143.834 21.5303 143.802 21.4271 143.771 21.2879C143.739 21.1487 143.605 20.9197 143.367 20.6054C143.129 20.2911 142.864 20.0082 142.563 19.7568C142.262 19.5053 141.809 19.2763 141.194 19.0743C140.578 18.8678 139.896 18.769 139.142 18.769C137.346 18.769 135.985 19.3033 135.056 20.3719C134.126 21.445 133.664 22.9537 133.664 24.9068C133.664 26.86 134.135 28.4719 135.083 29.6528C136.026 30.8336 137.382 31.4218 139.142 31.4218C140.336 31.4218 141.328 31.1165 142.114 30.5014C142.9 29.8862 143.389 29.2666 143.578 28.6335L143.861 27.74H149.998C149.967 27.96 149.922 28.2609 149.859 28.6335C149.796 29.0107 149.536 29.6887 149.082 30.663C148.624 31.6373 148.05 32.4949 147.358 33.2358C146.667 33.9766 145.594 34.6501 144.148 35.2653C142.698 35.8804 141.032 36.1857 139.142 36.1857C135.46 36.1857 132.595 35.18 130.548 33.1639C128.5 31.1479 127.477 28.3956 127.477 24.9023C127.477 21.6291 128.514 18.9845 130.593 16.9685" fill="#1D4835"/>
<path d="M163.19 17.1576C165.332 15.0473 168.273 13.9922 172.018 13.9922C175.762 13.9922 178.717 15.0473 180.872 17.1576C183.027 19.2679 184.105 21.9126 184.105 25.0915C184.105 28.2704 183.036 30.9465 180.895 33.0253C178.721 35.1356 175.762 36.1908 172.018 36.1908C168.273 36.1908 165.319 35.1267 163.163 33.0029C161.008 30.8791 159.931 28.2435 159.931 25.096C159.931 21.9485 161.017 19.2724 163.19 17.1621M166.118 25.0915C166.118 26.9189 166.621 28.4276 167.631 29.6219C168.637 30.8207 170.101 31.4179 172.022 31.4179C173.944 31.4179 175.367 30.8117 176.391 29.5994C177.415 28.3871 177.927 26.883 177.927 25.0915C177.927 23.2012 177.424 21.6791 176.413 20.5117C175.408 19.3488 173.94 18.7651 172.022 18.7651C170.105 18.7651 168.637 19.3488 167.631 20.5117C166.625 21.6746 166.118 23.2012 166.118 25.0915Z" fill="#1D4835"/>
<path d="M192.283 14.9231V26.4444C192.283 28.3976 192.629 29.8029 193.32 30.6695C194.012 31.5361 195.13 31.9671 196.674 31.9671C197.712 31.9671 198.556 31.7875 199.202 31.4238C199.849 31.0601 200.32 30.4944 200.621 29.7221C200.917 28.9543 201.111 28.182 201.187 27.4098C201.263 26.642 201.304 25.6407 201.304 24.4104V14.9186H207.397V36.1653H201.447V33.5656C200.127 35.5816 198.219 36.6053 195.736 36.6367H195.359C192.086 36.6367 189.737 35.7926 188.323 34.1088C186.909 32.4251 186.199 29.8658 186.199 26.4354V14.9141H192.292L192.283 14.9231Z" fill="#1D4835"/>
<path d="M212.447 16.9678C214.4 15.0191 216.982 14.0403 220.192 14.0403C220.538 14.0403 220.884 14.0583 221.23 14.0852C223.717 14.2109 225.652 15.2032 227.035 17.0576V5.34766H233.128V35.7091H227.179V32.7816C225.859 34.829 223.906 35.9291 221.324 36.0863C220.884 36.1177 220.444 36.1356 220.004 36.1356C216.888 36.1356 214.315 35.1523 212.285 33.1812C210.256 31.2146 209.241 28.5296 209.241 25.1306C209.241 21.7317 210.31 19.105 212.452 16.9633M215.419 25.1351C215.419 27.1197 215.981 28.6463 217.094 29.7149C218.212 30.788 219.622 31.3223 221.319 31.3223C223.017 31.3223 224.498 30.788 225.571 29.7149C226.64 28.6463 227.179 27.1017 227.179 25.0902C227.179 22.9171 226.649 21.3366 225.598 20.3443C224.543 19.3565 223.12 18.8581 221.324 18.8581C219.528 18.8581 218.176 19.4014 217.076 20.488C215.976 21.5745 215.424 23.1236 215.424 25.1396" fill="#1D4835"/>
<path d="M116.991 5.35156H110.898V35.713H116.991V5.35156Z" fill="#1D4835"/>
<path d="M125.358 5.35156H119.265V35.713H125.358V5.35156Z" fill="#1D4835"/>
<path d="M158.044 5.35156H151.951V35.713H158.044V5.35156Z" fill="#1D4835"/>
<defs>
<linearGradient id="paint0_linear_5414_98428" x1="25.7347" y1="38.5055" x2="40.0676" y2="16.7521" gradientUnits="userSpaceOnUse">
<stop stop-color="#7ECEA5"/>
<stop offset="1" stop-color="#7ECEA5"/>
</linearGradient>
</defs>
</svg>
