<svg width="334" height="255" viewBox="0 0 334 255" fill="none" xmlns="http://www.w3.org/2000/svg">
<rect x="71.1351" y="35.9994" width="196.912" height="182.541" rx="44.3678" stroke="url(#paint0_linear_272_27980)" stroke-width="0.735666"/>
<rect x="32.6869" y="0.366542" width="273.809" height="253.805" rx="76.3678" stroke="url(#paint1_linear_272_27980)" stroke-width="0.735666"/>
<rect x="97.112" y="60.0808" width="144.959" height="134.38" rx="28.2708" fill="white" stroke="#E9ECEC" stroke-width="0.541569"/>
<g filter="url(#filter0_d_272_27980)">
<rect x="107.288" y="69.5312" width="124.607" height="115.479" rx="21" fill="white"/>
<rect x="107.017" y="69.2605" width="125.148" height="116.02" rx="21.2708" stroke="#E9ECEC" stroke-width="0.541569"/>
</g>
<path d="M169.592 82.3047C177.462 82.3049 183.842 88.6856 183.842 96.5557V107.474C188.736 111.557 191.852 117.702 191.852 124.574C191.852 136.868 181.885 146.834 169.592 146.834C157.298 146.834 147.332 136.868 147.332 124.574C147.332 117.702 150.447 111.557 155.342 107.474V96.5557C155.342 88.6855 161.722 82.3047 169.592 82.3047ZM169.592 89.5635C165.73 89.5635 162.6 92.6942 162.6 96.5557V103.436C164.799 102.709 167.149 102.314 169.592 102.314C172.034 102.314 174.384 102.709 176.583 103.436V96.5557C176.583 92.6943 173.453 89.5637 169.592 89.5635Z" fill="#F4F6F4" stroke="#E9ECEC" stroke-width="0.460211"/>
<g filter="url(#filter1_d_272_27980)">
<path d="M178.513 96.5592C178.513 91.6321 174.519 87.6376 169.592 87.6374C164.665 87.6374 160.67 91.632 160.67 96.5592V110.234C160.67 111.173 159.909 111.934 158.971 111.934C158.032 111.934 157.271 111.173 157.271 110.234V96.5592C157.271 89.7547 162.788 84.2383 169.592 84.2383C176.396 84.2385 181.912 89.7549 181.912 96.5592V110.234C181.912 111.173 181.151 111.934 180.213 111.934C179.274 111.934 178.513 111.173 178.513 110.234V96.5592Z" fill="white"/>
<path d="M188.538 124.577C188.538 135.04 180.056 143.523 169.592 143.523C159.129 143.523 150.646 135.04 150.646 124.577C150.646 114.113 159.129 105.631 169.592 105.631C180.056 105.631 188.538 114.113 188.538 124.577Z" fill="white"/>
<path d="M169.592 84.0078C176.523 84.008 182.143 89.6282 182.143 96.5596V110.077C186.201 113.593 188.769 118.786 188.769 124.577C188.768 135.168 180.182 143.753 169.592 143.753C159.002 143.753 150.416 135.167 150.416 124.577C150.416 118.786 152.983 113.594 157.041 110.078V96.5596C157.041 89.6282 162.66 84.008 169.592 84.0078ZM169.592 87.8672C164.792 87.8674 160.9 91.7596 160.9 96.5596V107.479C163.509 106.15 166.463 105.401 169.592 105.401C172.72 105.401 175.674 106.151 178.283 107.479V96.5596C178.283 91.7596 174.392 87.8674 169.592 87.8672Z" stroke="#E9ECEC" stroke-width="0.460211"/>
</g>
<circle cx="169.592" cy="124.574" r="8.52305" fill="#7DCEA5" stroke="#E9ECEC" stroke-width="0.460211"/>
<g filter="url(#filter2_d_272_27980)">
<circle cx="169.592" cy="124.573" r="5.1905" fill="white"/>
<circle cx="169.592" cy="124.573" r="5.4206" stroke="#E9ECEC" stroke-width="0.460211"/>
</g>
<rect x="121.622" y="159.507" width="56.1002" height="5.1236" rx="2.5618" fill="#F4F6F4" stroke="#E9ECEC" stroke-width="0.541569"/>
<rect x="121.622" y="166.417" width="37.0054" height="5.1236" rx="2.5618" fill="#F4F6F4" stroke="#E9ECEC" stroke-width="0.541569"/>
<rect y="83.8828" width="88.5338" height="66.1036" rx="8.12353" fill="#E9F1EF"/>
<rect x="3.79562" y="98.737" width="80.9413" height="22.6626" rx="5.77761" fill="white"/>
<rect x="3.79562" y="98.737" width="80.9413" height="22.6626" rx="5.77761" stroke="#E9ECEC" stroke-width="0.541569"/>
<g clip-path="url(#clip0_272_27980)">
<path d="M12.7459 110.883L13.5745 110.064L14.1486 110.217C14.2369 110.238 14.3291 110.235 14.4158 110.208C14.5024 110.181 14.5802 110.131 14.6412 110.064C14.7009 110 14.7434 109.922 14.7645 109.837C14.7856 109.752 14.7847 109.663 14.7619 109.578L14.6085 109.007L14.876 108.759L15.4501 108.913C15.5385 108.933 15.6307 108.93 15.7173 108.903C15.8039 108.876 15.8817 108.827 15.9427 108.759C16.0025 108.696 16.0452 108.618 16.0669 108.534C16.0886 108.45 16.0885 108.361 16.0667 108.277L15.9133 107.706C16.0574 107.562 16.1383 107.366 16.1383 107.163C16.1383 106.959 16.0574 106.764 15.9133 106.62C15.7693 106.475 15.5739 106.395 15.3702 106.395C15.1665 106.395 14.9711 106.475 14.8271 106.62L11.6597 109.797C11.2213 109.61 10.7318 109.583 10.2751 109.718C9.81844 109.853 9.42299 110.143 9.15661 110.538C8.89022 110.932 8.76948 111.408 8.8151 111.882C8.86072 112.356 9.06984 112.799 9.40663 113.136C9.74341 113.473 10.1869 113.682 10.661 113.728C11.135 113.773 11.6102 113.652 12.0051 113.386C12.3999 113.12 12.6897 112.724 12.8249 112.268C12.9601 111.811 12.9322 111.321 12.7459 110.883Z" stroke="#525252" stroke-width="0.550683" stroke-linecap="round" stroke-linejoin="round"/>
<path d="M9.95366 111.969C9.95366 112.051 9.96969 112.131 10.0008 112.206C10.032 112.282 10.0776 112.35 10.1352 112.407C10.1927 112.465 10.2611 112.511 10.3363 112.542C10.4115 112.573 10.4921 112.589 10.5734 112.589C10.6548 112.589 10.7354 112.573 10.8106 112.542C10.8858 112.511 10.9541 112.465 11.0117 112.407C11.0692 112.35 11.1149 112.282 11.146 112.206C11.1772 112.131 11.1932 112.051 11.1932 111.969C11.1932 111.888 11.1772 111.807 11.146 111.732C11.1149 111.657 11.0692 111.588 11.0117 111.531C10.9541 111.473 10.8858 111.428 10.8106 111.397C10.7354 111.365 10.6548 111.349 10.5734 111.349C10.4921 111.349 10.4115 111.365 10.3363 111.397C10.2611 111.428 10.1927 111.473 10.1352 111.531C10.0776 111.588 10.032 111.657 10.0008 111.732C9.96969 111.807 9.95366 111.888 9.95366 111.969Z" stroke="#525252" stroke-width="0.550683" stroke-linecap="round" stroke-linejoin="round"/>
</g>
<path d="M24.4838 108.566L23.3795 104.396H24.055L24.8656 107.691L25.6762 104.396H26.3223L27.1329 107.691L27.9376 104.396H28.6249L27.5147 108.566H26.7746L25.9992 105.524L25.2239 108.566H24.4838ZM29.138 108.566V105.441H29.7607V108.566H29.138ZM29.1263 104.989V104.367H29.7724V104.989H29.1263ZM31.2764 108.566C31.0728 108.566 30.9083 108.514 30.783 108.408C30.6577 108.302 30.5951 108.134 30.5951 107.903V104.396H31.2177V107.844C31.2177 107.914 31.2353 107.967 31.2706 108.003C31.3097 108.038 31.3645 108.055 31.435 108.055H31.6817V108.566H31.2764ZM32.8769 108.566C32.6732 108.566 32.5088 108.514 32.3834 108.408C32.2581 108.302 32.1955 108.134 32.1955 107.903V104.396H32.8181V107.844C32.8181 107.914 32.8357 107.967 32.871 108.003C32.9101 108.038 32.965 108.055 33.0355 108.055H33.2822V108.566H32.8769ZM35.0995 108.637C34.8019 108.637 34.5415 108.57 34.3183 108.437C34.0951 108.304 33.9228 108.114 33.8014 107.867C33.68 107.621 33.6193 107.333 33.6193 107.004C33.6193 106.675 33.68 106.389 33.8014 106.146C33.9228 105.9 34.0951 105.71 34.3183 105.577C34.5415 105.44 34.8019 105.371 35.0995 105.371C35.354 105.371 35.5792 105.416 35.775 105.506C35.9747 105.592 36.1353 105.719 36.2567 105.888C36.382 106.056 36.4623 106.262 36.4975 106.505L35.8455 106.54C35.8142 106.336 35.7319 106.182 35.5988 106.076C35.4656 105.966 35.2992 105.911 35.0995 105.911C34.8371 105.911 34.6315 106.009 34.4827 106.205C34.3378 106.397 34.2654 106.663 34.2654 107.004C34.2654 107.345 34.3378 107.613 34.4827 107.809C34.6315 108.001 34.8371 108.096 35.0995 108.096C35.2992 108.096 35.4656 108.042 35.5988 107.932C35.7319 107.818 35.8142 107.648 35.8455 107.421L36.4975 107.456C36.4623 107.695 36.382 107.903 36.2567 108.079C36.1353 108.255 35.9747 108.392 35.775 108.49C35.5792 108.588 35.354 108.637 35.0995 108.637ZM37.4549 106.358L37.0966 106.14L37.4725 105.571H36.8029V105.124L37.4725 105.13L37.0966 104.56L37.4549 104.337L37.8132 104.936L38.1774 104.337L38.5298 104.56L38.1539 105.13L38.8235 105.124V105.571H38.1539L38.5298 106.14L38.1774 106.358L37.8132 105.765L37.4549 106.358ZM39.9617 106.358L39.6034 106.14L39.9793 105.571H39.3097V105.124L39.9793 105.13L39.6034 104.56L39.9617 104.337L40.32 104.936L40.6842 104.337L41.0366 104.56L40.6607 105.13L41.3303 105.124V105.571H40.6607L41.0366 106.14L40.6842 106.358L40.32 105.765L39.9617 106.358ZM42.4684 106.358L42.1101 106.14L42.486 105.571H41.8164V105.124L42.486 105.13L42.1101 104.56L42.4684 104.337L42.8267 104.936L43.1909 104.337L43.5434 104.56L43.1674 105.13L43.8371 105.124V105.571H43.1674L43.5434 106.14L43.1909 106.358L42.8267 105.765L42.4684 106.358ZM44.9752 106.358L44.6169 106.14L44.9928 105.571H44.3232V105.124L44.9928 105.13L44.6169 104.56L44.9752 104.337L45.3335 104.936L45.6977 104.337L46.0501 104.56L45.6742 105.13L46.3438 105.124V105.571H45.6742L46.0501 106.14L45.6977 106.358L45.3335 105.765L44.9752 106.358ZM47.4819 106.358L47.1236 106.14L47.4996 105.571H46.8299V105.124L47.4996 105.13L47.1236 104.56L47.4819 104.337L47.8402 104.936L48.2044 104.337L48.5569 104.56L48.1809 105.13L48.8506 105.124V105.571H48.1809L48.5569 106.14L48.2044 106.358L47.8402 105.765L47.4819 106.358ZM49.9887 106.358L49.6304 106.14L50.0063 105.571H49.3367V105.124L50.0063 105.13L49.6304 104.56L49.9887 104.337L50.347 104.936L50.7112 104.337L51.0636 104.56L50.6877 105.13L51.3573 105.124V105.571H50.6877L51.0636 106.14L50.7112 106.358L50.347 105.765L49.9887 106.358ZM52.4954 106.358L52.1371 106.14L52.5131 105.571H51.8434V105.124L52.5131 105.13L52.1371 104.56L52.4954 104.337L52.8537 104.936L53.2179 104.337L53.5704 104.56L53.1944 105.13L53.8641 105.124V105.571H53.1944L53.5704 106.14L53.2179 106.358L52.8537 105.765L52.4954 106.358Z" fill="#171717"/>
<path d="M23.6291 116.566V112.917H25.9214V113.349H24.0711V114.526H25.8597V114.947H24.0711V116.135H25.9625V116.566H23.6291ZM26.69 116.566V113.842H27.0858L27.1012 114.536L27.0498 114.49C27.084 114.329 27.144 114.197 27.2297 114.094C27.3153 113.988 27.4181 113.909 27.5381 113.858C27.6614 113.806 27.7933 113.781 27.9338 113.781C28.1428 113.781 28.3141 113.827 28.4478 113.919C28.5848 114.012 28.6859 114.137 28.751 114.295C28.8196 114.449 28.8538 114.622 28.8538 114.814V116.566H28.4221V114.937C28.4221 114.769 28.4015 114.629 28.3604 114.516C28.3227 114.399 28.261 114.312 28.1754 114.254C28.0897 114.192 27.9784 114.161 27.8413 114.161C27.6323 114.161 27.4592 114.228 27.3222 114.361C27.1886 114.492 27.1217 114.684 27.1217 114.937V116.566H26.69ZM30.7058 116.628C30.4523 116.628 30.2313 116.57 30.0428 116.453C29.8578 116.337 29.7139 116.172 29.6111 115.96C29.5083 115.744 29.4569 115.492 29.4569 115.204C29.4569 114.917 29.5083 114.666 29.6111 114.454C29.7139 114.242 29.8578 114.077 30.0428 113.961C30.2313 113.841 30.4523 113.781 30.7058 113.781C30.9149 113.781 31.0999 113.818 31.2609 113.894C31.4254 113.966 31.559 114.072 31.6618 114.212C31.7646 114.353 31.8314 114.524 31.8623 114.726L31.41 114.757C31.3791 114.576 31.3003 114.437 31.1735 114.341C31.0468 114.242 30.8909 114.192 30.7058 114.192C30.4557 114.192 30.2604 114.283 30.1199 114.464C29.9794 114.642 29.9092 114.889 29.9092 115.204C29.9092 115.52 29.9794 115.768 30.1199 115.95C30.2604 116.128 30.4557 116.217 30.7058 116.217C30.8909 116.217 31.0468 116.166 31.1735 116.063C31.3003 115.96 31.3791 115.806 31.41 115.6L31.8623 115.631C31.8314 115.833 31.7646 116.01 31.6618 116.16C31.559 116.308 31.4254 116.422 31.2609 116.505C31.0999 116.587 30.9149 116.628 30.7058 116.628ZM32.4232 116.566V113.842H32.8035L32.8241 114.531L32.783 114.516C32.8172 114.283 32.8909 114.113 33.004 114.007C33.1205 113.897 33.2747 113.842 33.4665 113.842H33.7338V114.254H33.4717C33.3346 114.254 33.2198 114.279 33.1273 114.331C33.0382 114.379 32.9697 114.452 32.9217 114.552C32.8772 114.648 32.8549 114.771 32.8549 114.922V116.566H32.4232ZM34.3841 117.337V116.957H34.6976C34.7935 116.957 34.8638 116.942 34.9083 116.911C34.9563 116.883 34.9923 116.837 35.0162 116.772L35.1139 116.515H34.9648L33.9677 113.842H34.4406L35.2527 116.114L36.0288 113.842H36.5016L35.3966 116.911C35.3452 117.058 35.2681 117.166 35.1653 117.235C35.0625 117.303 34.9203 117.337 34.7387 117.337H34.3841ZM36.9266 117.337V113.842H37.3275L37.3378 114.428L37.2761 114.397C37.3447 114.195 37.4578 114.043 37.6154 113.94C37.7764 113.834 37.9614 113.781 38.1705 113.781C38.4411 113.781 38.6622 113.848 38.8335 113.981C39.0082 114.115 39.1367 114.29 39.219 114.505C39.3046 114.721 39.3474 114.954 39.3474 115.204C39.3474 115.455 39.3046 115.688 39.219 115.903C39.1367 116.119 39.0082 116.294 38.8335 116.428C38.6622 116.561 38.4411 116.628 38.1705 116.628C38.03 116.628 37.8981 116.604 37.7747 116.556C37.6548 116.508 37.552 116.441 37.4663 116.356C37.3841 116.27 37.3275 116.169 37.2967 116.052L37.3584 115.98V117.337H36.9266ZM38.1293 116.217C38.3658 116.217 38.5525 116.128 38.6896 115.95C38.8266 115.771 38.8952 115.523 38.8952 115.204C38.8952 114.886 38.8266 114.637 38.6896 114.459C38.5525 114.281 38.3658 114.192 38.1293 114.192C37.9717 114.192 37.8347 114.23 37.7182 114.305C37.6051 114.38 37.516 114.493 37.4509 114.644C37.3892 114.795 37.3584 114.982 37.3584 115.204C37.3584 115.427 37.3892 115.614 37.4509 115.765C37.5126 115.915 37.6017 116.028 37.7182 116.104C37.8347 116.179 37.9717 116.217 38.1293 116.217ZM40.8506 116.566C40.6039 116.566 40.4206 116.51 40.3006 116.397C40.1841 116.284 40.1259 116.107 40.1259 115.867V113.205H40.5576V115.857C40.5576 115.98 40.585 116.066 40.6398 116.114C40.6947 116.162 40.7786 116.186 40.8917 116.186H41.2823V116.566H40.8506ZM39.725 114.223V113.842H41.2823V114.223H39.725ZM42.8755 116.628C42.6185 116.628 42.3958 116.57 42.2073 116.453C42.0223 116.337 41.8784 116.172 41.7756 115.96C41.6762 115.744 41.6265 115.492 41.6265 115.204C41.6265 114.917 41.6762 114.666 41.7756 114.454C41.8784 114.242 42.0206 114.077 42.2022 113.961C42.3872 113.841 42.6048 113.781 42.8549 113.781C43.0914 113.781 43.3004 113.837 43.482 113.95C43.6636 114.06 43.8041 114.221 43.9034 114.433C44.0062 114.646 44.0576 114.905 44.0576 115.21V115.338H42.0788C42.096 115.629 42.1731 115.849 42.3101 115.996C42.4506 116.143 42.6391 116.217 42.8755 116.217C43.0537 116.217 43.1993 116.176 43.3124 116.094C43.4289 116.008 43.5094 115.897 43.5539 115.759L44.0165 115.795C43.9446 116.039 43.8075 116.239 43.6053 116.397C43.4066 116.551 43.1633 116.628 42.8755 116.628ZM42.0788 114.958H43.5848C43.5642 114.694 43.4871 114.5 43.3535 114.377C43.2233 114.254 43.0571 114.192 42.8549 114.192C42.6459 114.192 42.4729 114.257 42.3358 114.387C42.2022 114.514 42.1165 114.704 42.0788 114.958ZM45.6344 116.628C45.398 116.628 45.1924 116.57 45.0176 116.453C44.8463 116.337 44.7144 116.172 44.6219 115.96C44.5294 115.747 44.4831 115.496 44.4831 115.204C44.4831 114.913 44.5294 114.661 44.6219 114.449C44.7144 114.236 44.8463 114.072 45.0176 113.955C45.1924 113.839 45.398 113.781 45.6344 113.781C45.816 113.781 45.9822 113.82 46.1329 113.899C46.2837 113.974 46.3968 114.082 46.4722 114.223V112.917H46.9039V116.566H46.5133L46.4979 116.155C46.4225 116.303 46.3077 116.419 46.1535 116.505C45.9993 116.587 45.8263 116.628 45.6344 116.628ZM45.7218 116.217C45.8828 116.217 46.0182 116.176 46.1278 116.094C46.2409 116.011 46.3265 115.895 46.3848 115.744C46.443 115.59 46.4722 115.41 46.4722 115.204C46.4722 114.992 46.443 114.81 46.3848 114.66C46.3265 114.509 46.2409 114.394 46.1278 114.315C46.0182 114.233 45.8828 114.192 45.7218 114.192C45.4819 114.192 45.29 114.283 45.1461 114.464C45.0056 114.642 44.9354 114.889 44.9354 115.204C44.9354 115.516 45.0056 115.763 45.1461 115.945C45.29 116.126 45.4819 116.217 45.7218 116.217Z" fill="#737373"/>
<rect x="10.95" y="120.211" width="80.9413" height="22.6626" rx="5.77761" transform="rotate(-2.74422 10.95 120.211)" fill="white"/>
<rect x="10.95" y="120.211" width="80.9413" height="22.6626" rx="5.77761" transform="rotate(-2.74422 10.95 120.211)" stroke="#E9ECEC" stroke-width="0.541569"/>
<g clip-path="url(#clip1_272_27980)">
<path d="M20.4719 131.92L21.2603 131.062L21.8411 131.188C21.9303 131.204 22.0223 131.196 22.1075 131.165C22.1927 131.134 22.2681 131.081 22.3258 131.011C22.3824 130.944 22.4211 130.864 22.4381 130.778C22.4551 130.692 22.45 130.603 22.4231 130.52L22.2426 129.957L22.4979 129.696L23.0787 129.822C23.1679 129.839 23.2599 129.831 23.3451 129.8C23.4303 129.769 23.5057 129.715 23.5634 129.645C23.6201 129.579 23.659 129.5 23.6767 129.414C23.6943 129.329 23.6899 129.241 23.6641 129.157L23.4836 128.594C23.6206 128.444 23.6921 128.245 23.6823 128.041C23.6726 127.838 23.5824 127.646 23.4316 127.509C23.2808 127.372 23.0818 127.301 22.8783 127.311C22.6748 127.32 22.4836 127.411 22.3466 127.561L19.3349 130.887C18.8882 130.722 18.3979 130.717 17.9482 130.874C17.4985 131.031 17.1174 131.339 16.8702 131.746C16.623 132.154 16.5252 132.634 16.5934 133.105C16.6617 133.577 16.8918 134.01 17.2443 134.33C17.5968 134.65 18.0498 134.838 18.5255 134.861C19.0013 134.884 19.4701 134.74 19.8517 134.455C20.2334 134.17 20.5039 133.761 20.6171 133.299C20.7303 132.836 20.6789 132.349 20.4719 131.92Z" stroke="#525252" stroke-width="0.550683" stroke-linecap="round" stroke-linejoin="round"/>
<path d="M17.7349 133.138C17.7388 133.22 17.7586 133.299 17.7934 133.373C17.8281 133.447 17.8769 133.513 17.9372 133.567C17.9974 133.622 18.0678 133.664 18.1444 133.692C18.221 133.719 18.3023 133.732 18.3836 133.728C18.4649 133.724 18.5446 133.704 18.6183 133.669C18.6919 133.635 18.7579 133.586 18.8127 133.525C18.8674 133.465 18.9097 133.395 18.9372 133.318C18.9648 133.242 18.9769 133.16 18.973 133.079C18.9691 132.998 18.9492 132.918 18.9145 132.844C18.8798 132.771 18.831 132.705 18.7707 132.65C18.7105 132.595 18.64 132.553 18.5634 132.525C18.4868 132.498 18.4056 132.486 18.3243 132.49C18.243 132.493 18.1632 132.513 18.0896 132.548C18.016 132.583 17.9499 132.632 17.8952 132.692C17.8405 132.752 17.7982 132.823 17.7706 132.899C17.7431 132.976 17.731 133.057 17.7349 133.138Z" stroke="#525252" stroke-width="0.550683" stroke-linecap="round" stroke-linejoin="round"/>
</g>
<path d="M32.0859 129.042L30.7832 124.929L31.458 124.897L32.4254 128.149L33.0773 124.819L33.7227 124.788L34.6901 128.041L35.3362 124.711L36.0226 124.678L35.1134 128.897L34.3742 128.932L33.454 125.93L32.8252 129.006L32.0859 129.042ZM36.7349 128.819L36.5853 125.698L37.2072 125.668L37.3568 128.789L36.7349 128.819ZM36.5519 125.246L36.5221 124.624L37.1675 124.593L37.1973 125.215L36.5519 125.246ZM38.8708 128.716C38.6674 128.726 38.5006 128.681 38.3704 128.582C38.2402 128.482 38.1695 128.317 38.1584 128.086L37.9906 124.583L38.6125 124.554L38.7776 127.998C38.7809 128.068 38.8011 128.12 38.838 128.154C38.8788 128.187 38.9344 128.202 39.0048 128.198L39.2512 128.187L39.2757 128.697L38.8708 128.716ZM40.4694 128.64C40.266 128.65 40.0992 128.605 39.969 128.505C39.8387 128.405 39.7681 128.24 39.757 128.009L39.5891 124.507L40.2111 124.477L40.3761 127.921C40.3795 127.991 40.3996 128.043 40.4365 128.077C40.4773 128.11 40.5329 128.125 40.6034 128.122L40.8498 128.11L40.8742 128.62L40.4694 128.64ZM42.6929 128.604C42.3956 128.618 42.1323 128.564 41.903 128.442C41.6736 128.319 41.4925 128.138 41.3594 127.897C41.2263 127.657 41.1519 127.372 41.1362 127.044C41.1204 126.715 41.1674 126.427 41.277 126.178C41.3864 125.926 41.5494 125.728 41.766 125.584C41.9824 125.437 42.2392 125.356 42.5365 125.342C42.7908 125.329 43.0178 125.364 43.2177 125.444C43.4213 125.521 43.5878 125.64 43.7171 125.803C43.8503 125.965 43.9404 126.166 43.9872 126.407L43.3376 126.474C43.2966 126.272 43.207 126.121 43.069 126.022C42.9307 125.919 42.7619 125.872 42.5624 125.881C42.3003 125.894 42.0997 126.002 41.9604 126.204C41.8249 126.403 41.7652 126.672 41.7816 127.013C41.7979 127.353 41.8831 127.617 42.0372 127.806C42.195 127.991 42.4049 128.077 42.667 128.064C42.8665 128.055 43.0301 127.992 43.1578 127.876C43.2854 127.756 43.3594 127.582 43.3798 127.354L44.0327 127.358C44.009 127.598 43.9387 127.809 43.822 127.991C43.7092 128.173 43.5554 128.317 43.3606 128.425C43.1697 128.532 42.9471 128.592 42.6929 128.604ZM44.9365 126.215L44.5682 126.015L44.9164 125.428L44.2475 125.46L44.2262 125.014L44.8953 124.988L44.4925 124.436L44.8397 124.196L45.2263 124.778L45.5614 124.162L45.9241 124.368L45.5759 124.955L46.2445 124.917L46.2658 125.363L45.597 125.395L45.9998 125.946L45.6581 126.18L45.266 125.605L44.9365 126.215ZM47.4403 126.095L47.072 125.895L47.4203 125.308L46.7514 125.34L46.73 124.894L47.3992 124.867L46.9964 124.316L47.3436 124.076L47.7302 124.658L48.0653 124.042L48.428 124.248L48.0798 124.835L48.7484 124.797L48.7697 125.243L48.1009 125.275L48.5036 125.826L48.162 126.06L47.7698 125.485L47.4403 126.095ZM49.9442 125.975L49.5759 125.775L49.9241 125.188L49.2553 125.22L49.2339 124.774L49.9031 124.747L49.5003 124.196L49.8475 123.956L50.2341 124.538L50.5692 123.922L50.9319 124.128L50.5836 124.715L51.2522 124.677L51.2736 125.123L50.6047 125.155L51.0075 125.706L50.6659 125.94L50.2737 125.365L49.9442 125.975ZM52.4481 125.855L52.0798 125.655L52.428 125.067L51.7592 125.1L51.7378 124.654L52.4069 124.627L52.0042 124.076L52.3514 123.836L52.738 124.418L53.073 123.802L53.4358 124.008L53.0875 124.595L53.7561 124.557L53.7775 125.003L53.1086 125.035L53.5114 125.586L53.1698 125.82L52.7776 125.245L52.4481 125.855ZM54.952 125.735L54.5837 125.535L54.9319 124.947L54.263 124.98L54.2417 124.534L54.9108 124.507L54.508 123.956L54.8552 123.716L55.2418 124.298L55.5769 123.682L55.9396 123.888L55.5914 124.475L56.26 124.437L56.2814 124.883L55.6125 124.915L56.0153 125.466L55.6737 125.7L55.2815 125.125L54.952 125.735ZM57.4559 125.615L57.0876 125.415L57.4358 124.827L56.7669 124.86L56.7455 124.414L57.4147 124.387L57.0119 123.836L57.3591 123.596L57.7457 124.177L58.0808 123.562L58.4435 123.768L58.0953 124.355L58.7639 124.317L58.7852 124.763L58.1164 124.795L58.5192 125.346L58.1775 125.58L57.7854 125.005L57.4559 125.615ZM59.9597 125.494L59.5914 125.295L59.9397 124.707L59.2708 124.74L59.2494 124.294L59.9186 124.267L59.5158 123.716L59.863 123.476L60.2496 124.057L60.5847 123.442L60.9474 123.648L60.5992 124.235L61.2677 124.197L61.2891 124.643L60.6203 124.675L61.023 125.226L60.6814 125.46L60.2892 124.885L59.9597 125.494Z" fill="#171717"/>
<path d="M31.615 137.072L31.4403 133.427L33.73 133.317L33.7507 133.749L31.9025 133.837L31.9589 135.013L33.7454 134.927L33.7656 135.348L31.979 135.434L32.0359 136.62L33.9251 136.529L33.9458 136.96L31.615 137.072ZM34.6724 136.925L34.542 134.205L34.9373 134.186L34.9859 134.878L34.9324 134.834C34.9589 134.672 35.0125 134.537 35.0931 134.43C35.1736 134.32 35.2725 134.236 35.3898 134.179C35.5106 134.122 35.6411 134.09 35.7814 134.083C35.9902 134.073 36.1636 134.111 36.3015 134.197C36.4428 134.283 36.5497 134.403 36.6223 134.558C36.6982 134.708 36.7407 134.88 36.7499 135.071L36.8338 136.822L36.4025 136.843L36.3245 135.215C36.3165 135.047 36.2892 134.908 36.2427 134.797C36.1995 134.683 36.1337 134.598 36.0454 134.544C35.9569 134.487 35.8441 134.461 35.7072 134.468C35.4985 134.478 35.3288 134.553 35.1983 134.693C35.0711 134.829 35.0135 135.024 35.0257 135.277L35.1037 136.905L34.6724 136.925ZM38.6866 136.795C38.4333 136.807 38.2098 136.759 38.016 136.652C37.8256 136.545 37.674 136.387 37.5611 136.18C37.4481 135.969 37.3847 135.72 37.3709 135.433C37.3572 135.145 37.3965 134.893 37.489 134.676C37.5815 134.459 37.7174 134.287 37.8966 134.162C38.0791 134.033 38.297 133.963 38.5503 133.951C38.7591 133.941 38.9457 133.969 39.1102 134.037C39.2779 134.101 39.4164 134.201 39.5258 134.336C39.6352 134.472 39.7102 134.64 39.7507 134.84L39.3004 134.892C39.2609 134.712 39.1755 134.578 39.0443 134.488C38.9129 134.395 38.7548 134.353 38.57 134.361C38.3201 134.373 38.1294 134.473 37.9978 134.662C37.866 134.846 37.8076 135.096 37.8227 135.411C37.8378 135.726 37.9199 135.971 38.0689 136.145C38.2177 136.316 38.4171 136.396 38.6669 136.384C38.8517 136.375 39.005 136.316 39.1267 136.208C39.2484 136.099 39.3198 135.941 39.3407 135.734L39.794 135.744C39.7729 135.947 39.7146 136.126 39.6191 136.282C39.5235 136.434 39.3955 136.555 39.2352 136.645C39.0782 136.735 38.8954 136.785 38.6866 136.795ZM40.399 136.651L40.2686 133.93L40.6485 133.912L40.702 134.599L40.6602 134.585C40.6833 134.351 40.7488 134.178 40.8566 134.067C40.9677 133.951 41.1191 133.889 41.3108 133.88L41.5777 133.867L41.5974 134.278L41.3356 134.291C41.1987 134.297 41.0853 134.328 40.9953 134.384C40.9086 134.436 40.8437 134.513 40.8006 134.615C40.7607 134.713 40.7443 134.837 40.7515 134.988L40.8303 136.63L40.399 136.651ZM42.3946 137.327L42.3764 136.947L42.6895 136.932C42.7854 136.928 42.8548 136.909 42.8978 136.876C42.9444 136.846 42.9781 136.798 42.999 136.732L43.0842 136.471L42.9353 136.478L41.8114 133.856L42.2837 133.833L43.2036 136.064L43.8701 133.757L44.3424 133.735L43.3855 136.853C43.3412 137.002 43.2694 137.114 43.17 137.187C43.0706 137.26 42.9302 137.302 42.7488 137.31L42.3946 137.327ZM44.9342 137.205L44.7669 133.714L45.1674 133.695L45.2057 134.28L45.1426 134.252C45.2014 134.047 45.307 133.889 45.4595 133.779C45.6153 133.665 45.7976 133.603 46.0063 133.593C46.2767 133.58 46.5007 133.637 46.6782 133.762C46.8592 133.887 46.9959 134.055 47.0883 134.267C47.1842 134.479 47.2382 134.709 47.2502 134.959C47.2621 135.209 47.2305 135.444 47.1553 135.663C47.0835 135.883 46.9635 136.064 46.7953 136.205C46.6306 136.347 46.4131 136.424 46.1427 136.437C46.0023 136.444 45.8694 136.427 45.7439 136.385C45.6218 136.342 45.516 136.281 45.4263 136.199C45.3401 136.117 45.2787 136.019 45.2424 135.904L45.3005 135.829L45.3655 137.185L44.9342 137.205ZM46.0819 136.029C46.3181 136.017 46.5003 135.919 46.6287 135.735C46.7571 135.55 46.8136 135.299 46.7984 134.981C46.7831 134.662 46.7028 134.418 46.5573 134.246C46.4119 134.075 46.2211 133.995 45.985 134.006C45.8275 134.014 45.6924 134.058 45.5797 134.139C45.4703 134.219 45.3868 134.337 45.329 134.49C45.2746 134.644 45.2527 134.832 45.2634 135.054C45.274 135.277 45.3138 135.462 45.3826 135.609C45.4514 135.757 45.5458 135.866 45.6658 135.935C45.7858 136.005 45.9245 136.036 46.0819 136.029ZM48.8168 136.248C48.5703 136.259 48.3845 136.212 48.2593 136.104C48.1375 135.997 48.0709 135.824 48.0594 135.584L47.932 132.925L48.3632 132.904L48.4902 135.553C48.4961 135.676 48.5276 135.761 48.5846 135.806C48.6417 135.851 48.7267 135.871 48.8396 135.866L49.2298 135.847L49.248 136.227L48.8168 136.248ZM47.5802 133.96L47.562 133.58L49.1176 133.506L49.1358 133.886L47.5802 133.96ZM50.8423 136.212C50.5856 136.224 50.3604 136.177 50.1666 136.07C49.9762 135.962 49.8245 135.805 49.7117 135.597C49.6021 135.387 49.5404 135.137 49.5266 134.85C49.5129 134.562 49.5505 134.31 49.6396 134.093C49.7321 133.876 49.8663 133.705 50.0421 133.58C50.2212 133.451 50.4356 133.381 50.6855 133.369C50.9216 133.358 51.1331 133.404 51.3199 133.508C51.5065 133.609 51.6546 133.763 51.764 133.971C51.8769 134.178 51.9406 134.434 51.9552 134.739L51.9613 134.867L49.9848 134.962C50.0159 135.252 50.1034 135.467 50.2473 135.608C50.3947 135.748 50.5865 135.813 50.8226 135.801C51.0006 135.793 51.1441 135.745 51.2531 135.657C51.3654 135.566 51.4405 135.451 51.4784 135.312L51.9422 135.326C51.8819 135.572 51.7546 135.779 51.5602 135.946C51.3691 136.11 51.1298 136.198 50.8423 136.212ZM49.9666 134.582L51.4708 134.51C51.4376 134.247 51.3514 134.058 51.212 133.941C51.076 133.824 50.9071 133.77 50.7051 133.78C50.4964 133.79 50.3266 133.863 50.196 134C50.0686 134.133 49.9921 134.327 49.9666 134.582ZM53.5981 136.08C53.3619 136.091 53.1538 136.043 52.9736 135.935C52.7969 135.827 52.6573 135.669 52.5547 135.461C52.4521 135.253 52.3939 135.004 52.3799 134.713C52.366 134.422 52.4001 134.168 52.4824 133.952C52.5646 133.735 52.6885 133.565 52.854 133.44C53.023 133.315 53.2256 133.247 53.4617 133.236C53.6431 133.227 53.811 133.259 53.9654 133.33C54.1196 133.398 54.2377 133.501 54.3197 133.637L54.2572 132.333L54.6884 132.313L54.8632 135.958L54.473 135.976L54.4379 135.566C54.3697 135.717 54.2606 135.839 54.1107 135.932C53.9606 136.022 53.7897 136.071 53.5981 136.08ZM53.6656 135.665C53.8265 135.657 53.9597 135.61 54.0653 135.523C54.1743 135.435 54.2543 135.315 54.3053 135.161C54.3561 135.004 54.3765 134.823 54.3667 134.618C54.3565 134.406 54.3187 134.226 54.2533 134.078C54.1879 133.93 54.0969 133.82 53.9802 133.746C53.8667 133.669 53.7295 133.635 53.5687 133.642C53.3291 133.654 53.1418 133.754 53.0067 133.942C52.8749 134.127 52.8166 134.377 52.8317 134.691C52.8466 135.003 52.9286 135.246 53.0776 135.421C53.2301 135.595 53.4261 135.677 53.6656 135.665Z" fill="#737373"/>
<path opacity="0.3" d="M6.06471 94.1992L7.38047 90.55H7.97668L9.29244 94.1992H8.80931L8.44439 93.161H6.91276L6.54784 94.1992H6.06471ZM7.06181 92.7293H8.29534L7.67858 90.9355L7.06181 92.7293ZM10.6051 94.2609C10.3618 94.2609 10.1545 94.2215 9.98317 94.1427C9.81527 94.0639 9.68336 93.9559 9.58741 93.8189C9.4949 93.6784 9.44179 93.5191 9.42808 93.3409L9.88038 93.31C9.90779 93.4745 9.97803 93.6064 10.0911 93.7058C10.2042 93.8017 10.3755 93.8497 10.6051 93.8497C10.7901 93.8497 10.9374 93.8206 11.0471 93.7623C11.1602 93.7007 11.2167 93.603 11.2167 93.4694C11.2167 93.3974 11.1996 93.3375 11.1653 93.2895C11.131 93.2415 11.0642 93.2004 10.9649 93.1661C10.8655 93.1284 10.7181 93.0925 10.5228 93.0582C10.2624 93.0102 10.0568 92.952 9.90608 92.8835C9.75874 92.8115 9.65252 92.7241 9.58741 92.6213C9.52574 92.5151 9.4949 92.39 9.4949 92.2461C9.4949 92.0029 9.58399 91.8041 9.76216 91.6499C9.94034 91.4923 10.1939 91.4135 10.5228 91.4135C10.7456 91.4135 10.9323 91.4546 11.0831 91.5369C11.2373 91.6157 11.3572 91.7219 11.4428 91.8555C11.5319 91.9857 11.5902 92.1296 11.6176 92.2872L11.1653 92.3181C11.1447 92.2221 11.1071 92.1382 11.0522 92.0662C10.9974 91.9909 10.9255 91.9326 10.8364 91.8915C10.7473 91.8469 10.6411 91.8247 10.5177 91.8247C10.3224 91.8247 10.1785 91.8624 10.086 91.9377C9.99345 92.0131 9.94719 92.1091 9.94719 92.2256C9.94719 92.3147 9.96775 92.3883 10.0089 92.4466C10.0534 92.5014 10.1237 92.5477 10.2196 92.5854C10.3155 92.6196 10.444 92.6505 10.6051 92.6779C10.8826 92.7258 11.0985 92.7841 11.2527 92.8526C11.4069 92.9211 11.5148 93.0051 11.5765 93.1045C11.6382 93.2038 11.669 93.3255 11.669 93.4694C11.669 93.6373 11.621 93.7812 11.5251 93.9011C11.4326 94.0176 11.3058 94.1067 11.1447 94.1684C10.9871 94.2301 10.8072 94.2609 10.6051 94.2609ZM13.1474 94.2609C12.9041 94.2609 12.6968 94.2215 12.5255 94.1427C12.3576 94.0639 12.2257 93.9559 12.1298 93.8189C12.0372 93.6784 11.9841 93.5191 11.9704 93.3409L12.4227 93.31C12.4501 93.4745 12.5204 93.6064 12.6335 93.7058C12.7465 93.8017 12.9179 93.8497 13.1474 93.8497C13.3325 93.8497 13.4798 93.8206 13.5894 93.7623C13.7025 93.7007 13.759 93.603 13.759 93.4694C13.759 93.3974 13.7419 93.3375 13.7077 93.2895C13.6734 93.2415 13.6066 93.2004 13.5072 93.1661C13.4078 93.1284 13.2605 93.0925 13.0652 93.0582C12.8048 93.0102 12.5992 92.952 12.4484 92.8835C12.3011 92.8115 12.1949 92.7241 12.1298 92.6213C12.0681 92.5151 12.0372 92.39 12.0372 92.2461C12.0372 92.0029 12.1263 91.8041 12.3045 91.6499C12.4827 91.4923 12.7362 91.4135 13.0652 91.4135C13.2879 91.4135 13.4747 91.4546 13.6254 91.5369C13.7796 91.6157 13.8995 91.7219 13.9852 91.8555C14.0743 91.9857 14.1325 92.1296 14.1599 92.2872L13.7077 92.3181C13.6871 92.2221 13.6494 92.1382 13.5946 92.0662C13.5398 91.9909 13.4678 91.9326 13.3787 91.8915C13.2896 91.8469 13.1834 91.8247 13.06 91.8247C12.8647 91.8247 12.7208 91.8624 12.6283 91.9377C12.5358 92.0131 12.4895 92.1091 12.4895 92.2256C12.4895 92.3147 12.5101 92.3883 12.5512 92.4466C12.5958 92.5014 12.666 92.5477 12.7619 92.5854C12.8579 92.6196 12.9864 92.6505 13.1474 92.6779C13.425 92.7258 13.6408 92.7841 13.795 92.8526C13.9492 92.9211 14.0572 93.0051 14.1188 93.1045C14.1805 93.2038 14.2113 93.3255 14.2113 93.4694C14.2113 93.6373 14.1634 93.7812 14.0674 93.9011C13.9749 94.0176 13.8481 94.1067 13.6871 94.1684C13.5295 94.2301 13.3496 94.2609 13.1474 94.2609ZM15.7617 94.2609C15.5047 94.2609 15.282 94.2026 15.0936 94.0861C14.9085 93.9696 14.7646 93.8052 14.6618 93.5927C14.5625 93.3769 14.5128 93.125 14.5128 92.8372C14.5128 92.5494 14.5625 92.2992 14.6618 92.0868C14.7646 91.8744 14.9068 91.7099 15.0884 91.5934C15.2735 91.4735 15.491 91.4135 15.7412 91.4135C15.9776 91.4135 16.1866 91.47 16.3682 91.5831C16.5498 91.6928 16.6903 91.8538 16.7897 92.0662C16.8925 92.2787 16.9439 92.5374 16.9439 92.8423V92.9708H14.9651C14.9822 93.2621 15.0593 93.4814 15.1964 93.6287C15.3368 93.776 15.5253 93.8497 15.7617 93.8497C15.9399 93.8497 16.0855 93.8086 16.1986 93.7264C16.3151 93.6407 16.3956 93.5293 16.4402 93.3923L16.9027 93.4283C16.8308 93.6715 16.6937 93.872 16.4916 94.0296C16.2928 94.1838 16.0496 94.2609 15.7617 94.2609ZM14.9651 92.5905H16.471C16.4504 92.3267 16.3734 92.1331 16.2397 92.0097C16.1095 91.8864 15.9433 91.8247 15.7412 91.8247C15.5322 91.8247 15.3591 91.8898 15.2221 92.02C15.0884 92.1468 15.0028 92.3369 14.9651 92.5905ZM18.3176 94.1992C18.0709 94.1992 17.8875 94.1427 17.7676 94.0296C17.6511 93.9165 17.5929 93.7401 17.5929 93.5002V90.8379H18.0246V93.4899C18.0246 93.6133 18.052 93.699 18.1068 93.7469C18.1617 93.7949 18.2456 93.8189 18.3587 93.8189H18.7493V94.1992H18.3176ZM17.192 91.8555V91.4752H18.7493V91.8555H17.192Z" fill="#455954"/>
<path opacity="0.4" d="M77.1228 94.1992C77.1228 93.9422 77.1622 93.7109 77.241 93.5054C77.3233 93.2963 77.4655 93.0976 77.6676 92.9092C77.8732 92.7207 78.1576 92.5305 78.5208 92.3386C78.6887 92.2496 78.8241 92.1673 78.9269 92.0919C79.0297 92.0166 79.105 91.936 79.153 91.8504C79.201 91.7647 79.225 91.6602 79.225 91.5369C79.225 91.4101 79.1976 91.3004 79.1427 91.2079C79.0879 91.112 79.0057 91.0366 78.896 90.9818C78.7898 90.9269 78.6562 90.8995 78.4951 90.8995C78.2382 90.8995 78.0343 90.9663 77.8835 91.1C77.7362 91.2336 77.6437 91.4238 77.606 91.6705L77.1434 91.6396C77.1845 91.2833 77.3216 90.9989 77.5546 90.7865C77.7876 90.574 78.1011 90.4678 78.4951 90.4678C78.7453 90.4678 78.9594 90.5123 79.1376 90.6014C79.3158 90.6905 79.4511 90.8156 79.5436 90.9766C79.6396 91.1342 79.6875 91.3176 79.6875 91.5266C79.6875 91.7116 79.6567 91.8726 79.595 92.0097C79.5334 92.1433 79.4289 92.2684 79.2815 92.3849C79.1376 92.5014 78.9389 92.6265 78.6853 92.7601C78.3564 92.9349 78.1062 93.1113 77.9349 93.2895C77.767 93.4677 77.6779 93.627 77.6676 93.7675H79.6875V94.1992H77.1228Z" fill="#455954"/>
<rect x="252.251" y="110.07" width="78.1721" height="41.6794" rx="8.12353" transform="rotate(3.97037 252.251 110.07)" fill="#E9F1EF"/>
<rect x="254.906" y="124.451" width="78.2208" height="22.6626" rx="5.77761" transform="rotate(5.41307 254.906 124.451)" fill="white"/>
<rect x="254.906" y="124.451" width="78.2208" height="22.6626" rx="5.77761" transform="rotate(5.41307 254.906 124.451)" stroke="#E9ECEC" stroke-width="0.541569"/>
<g clip-path="url(#clip2_272_27980)">
<path d="M262.67 137.391L263.572 136.654L264.129 136.861C264.215 136.89 264.307 136.895 264.396 136.876C264.485 136.858 264.567 136.816 264.634 136.755C264.7 136.696 264.749 136.623 264.778 136.54C264.807 136.457 264.815 136.368 264.8 136.282L264.701 135.699L264.991 135.478L265.548 135.685C265.634 135.713 265.726 135.719 265.815 135.7C265.904 135.681 265.986 135.639 266.053 135.578C266.119 135.521 266.168 135.448 266.198 135.366C266.227 135.284 266.236 135.195 266.222 135.109L266.123 134.527C266.28 134.397 266.379 134.21 266.398 134.007C266.418 133.804 266.355 133.602 266.226 133.445C266.096 133.288 265.909 133.189 265.706 133.17C265.503 133.151 265.301 133.213 265.144 133.343L261.691 136.207C261.272 135.98 260.788 135.906 260.32 135.998C259.853 136.089 259.432 136.341 259.129 136.708C258.827 137.076 258.662 137.538 258.663 138.014C258.663 138.491 258.83 138.952 259.133 139.319C259.437 139.686 259.858 139.936 260.326 140.026C260.794 140.116 261.278 140.041 261.696 139.813C262.115 139.585 262.441 139.219 262.618 138.777C262.796 138.335 262.814 137.845 262.67 137.391Z" stroke="#525252" stroke-width="0.550683" stroke-linecap="round" stroke-linejoin="round"/>
<path d="M259.788 138.209C259.78 138.29 259.789 138.372 259.812 138.449C259.836 138.527 259.875 138.6 259.927 138.662C259.979 138.725 260.043 138.777 260.115 138.815C260.187 138.853 260.265 138.877 260.346 138.884C260.427 138.892 260.509 138.884 260.587 138.86C260.665 138.836 260.737 138.797 260.8 138.745C260.863 138.693 260.914 138.629 260.953 138.557C260.991 138.486 261.014 138.407 261.022 138.326C261.03 138.245 261.021 138.163 260.997 138.085C260.973 138.007 260.934 137.935 260.883 137.872C260.831 137.81 260.767 137.758 260.695 137.72C260.623 137.682 260.544 137.658 260.463 137.65C260.382 137.643 260.301 137.651 260.223 137.675C260.145 137.699 260.073 137.738 260.01 137.79C259.947 137.842 259.895 137.905 259.857 137.977C259.819 138.049 259.796 138.128 259.788 138.209Z" stroke="#525252" stroke-width="0.550683" stroke-linecap="round" stroke-linejoin="round"/>
</g>
<path d="M274.575 136.192L273.869 131.936L274.542 131.999L275.038 135.356L276.156 132.152L276.799 132.213L277.295 135.57L278.407 132.366L279.091 132.43L277.593 136.478L276.856 136.408L276.371 133.305L275.312 136.261L274.575 136.192ZM279.209 136.631L279.504 133.52L280.123 133.578L279.829 136.689L279.209 136.631ZM279.535 133.068L279.593 132.448L280.237 132.509L280.178 133.129L279.535 133.068ZM281.338 136.832C281.135 136.813 280.976 136.745 280.861 136.628C280.747 136.511 280.7 136.337 280.722 136.107L281.053 132.616L281.673 132.675L281.347 136.108C281.341 136.178 281.353 136.232 281.385 136.271C281.421 136.309 281.474 136.332 281.544 136.339L281.789 136.362L281.741 136.871L281.338 136.832ZM282.931 136.983C282.728 136.964 282.57 136.896 282.455 136.779C282.34 136.662 282.293 136.488 282.315 136.258L282.646 132.767L283.266 132.826L282.941 136.259C282.934 136.329 282.947 136.383 282.978 136.421C283.014 136.46 283.067 136.483 283.137 136.49L283.383 136.513L283.334 137.022L282.931 136.983ZM285.137 137.263C284.841 137.235 284.588 137.144 284.378 136.991C284.168 136.837 284.015 136.632 283.917 136.375C283.82 136.118 283.786 135.825 283.817 135.498C283.849 135.17 283.936 134.892 284.08 134.661C284.224 134.427 284.413 134.254 284.648 134.143C284.883 134.028 285.149 133.984 285.445 134.012C285.699 134.036 285.918 134.102 286.105 134.21C286.296 134.315 286.443 134.457 286.548 134.636C286.657 134.815 286.718 135.027 286.73 135.272L286.078 135.246C286.066 135.04 285.998 134.879 285.876 134.761C285.754 134.639 285.593 134.569 285.394 134.55C285.133 134.525 284.919 134.603 284.752 134.784C284.59 134.961 284.493 135.22 284.461 135.559C284.429 135.898 284.475 136.172 284.601 136.381C284.731 136.586 284.927 136.701 285.188 136.725C285.387 136.744 285.558 136.705 285.701 136.609C285.844 136.508 285.942 136.346 285.994 136.123L286.64 136.22C286.583 136.454 286.483 136.653 286.342 136.817C286.204 136.981 286.031 137.102 285.823 137.181C285.619 137.26 285.39 137.287 285.137 137.263ZM287.697 135.217L287.361 134.966L287.789 134.435L287.122 134.371L287.164 133.927L287.83 133.996L287.51 133.393L287.888 133.205L288.188 133.835L288.607 133.273L288.937 133.529L288.509 134.06L289.176 134.118L289.134 134.562L288.467 134.499L288.788 135.102L288.416 135.285L288.11 134.66L287.697 135.217ZM290.193 135.453L289.856 135.203L290.284 134.671L289.618 134.608L289.66 134.163L290.326 134.233L290.005 133.63L290.383 133.441L290.683 134.072L291.102 133.51L291.432 133.765L291.004 134.297L291.671 134.354L291.629 134.799L290.963 134.735L291.283 135.338L290.912 135.521L290.605 134.896L290.193 135.453ZM292.688 135.69L292.352 135.439L292.78 134.908L292.113 134.844L292.155 134.4L292.821 134.469L292.501 133.866L292.879 133.678L293.179 134.308L293.598 133.746L293.928 134.001L293.5 134.533L294.167 134.591L294.125 135.035L293.458 134.972L293.779 135.575L293.407 135.758L293.101 135.133L292.688 135.69ZM295.184 135.926L294.847 135.676L295.275 135.144L294.609 135.081L294.651 134.636L295.317 134.705L294.997 134.103L295.374 133.914L295.674 134.545L296.094 133.983L296.423 134.238L295.995 134.77L296.663 134.827L296.62 135.271L295.954 135.208L296.274 135.811L295.903 135.994L295.596 135.369L295.184 135.926ZM297.679 136.162L297.343 135.912L297.771 135.381L297.104 135.317L297.147 134.873L297.813 134.942L297.492 134.339L297.87 134.151L298.17 134.781L298.589 134.219L298.919 134.474L298.491 135.006L299.158 135.064L299.116 135.508L298.449 135.445L298.77 136.047L298.399 136.231L298.092 135.606L297.679 136.162ZM300.175 136.399L299.839 136.149L300.267 135.617L299.6 135.554L299.642 135.109L300.308 135.178L299.988 134.576L300.365 134.387L300.666 135.018L301.085 134.455L301.415 134.711L300.987 135.243L301.654 135.3L301.612 135.744L300.945 135.681L301.265 136.284L300.894 136.467L300.588 135.842L300.175 136.399ZM302.67 136.635L302.334 136.385L302.762 135.853L302.096 135.79L302.138 135.346L302.804 135.415L302.483 134.812L302.861 134.624L303.161 135.254L303.58 134.692L303.91 134.947L303.482 135.479L304.149 135.536L304.107 135.981L303.441 135.918L303.761 136.52L303.39 136.704L303.083 136.079L302.67 136.635Z" fill="#171717"/>
<path d="M272.97 144.076L273.314 140.444L275.596 140.66L275.556 141.09L273.714 140.915L273.603 142.087L275.383 142.256L275.344 142.675L273.563 142.506L273.451 143.688L275.334 143.867L275.293 144.297L272.97 144.076ZM276.017 144.365L276.274 141.653L276.668 141.691L276.618 142.383L276.571 142.332C276.621 142.175 276.693 142.049 276.788 141.955C276.883 141.857 276.993 141.789 277.117 141.749C277.245 141.709 277.379 141.696 277.518 141.709C277.727 141.729 277.893 141.791 278.017 141.896C278.145 142.001 278.234 142.135 278.284 142.298C278.337 142.458 278.355 142.633 278.337 142.824L278.172 144.569L277.742 144.529L277.895 142.907C277.911 142.739 277.904 142.598 277.874 142.481C277.847 142.362 277.794 142.269 277.714 142.203C277.635 142.133 277.527 142.092 277.39 142.079C277.182 142.059 277.004 142.11 276.855 142.23C276.709 142.347 276.625 142.531 276.601 142.784L276.447 144.406L276.017 144.365ZM280.01 144.805C279.757 144.782 279.543 144.703 279.366 144.569C279.193 144.435 279.065 144.258 278.983 144.037C278.901 143.812 278.873 143.557 278.9 143.27C278.928 142.984 279.002 142.74 279.125 142.538C279.247 142.336 279.406 142.186 279.601 142.087C279.8 141.986 280.026 141.947 280.278 141.971C280.486 141.99 280.667 142.045 280.82 142.136C280.977 142.223 281.1 142.341 281.189 142.491C281.278 142.64 281.329 142.817 281.34 143.021L280.887 143.009C280.873 142.826 280.808 142.68 280.691 142.573C280.574 142.462 280.424 142.398 280.239 142.38C279.99 142.356 279.787 142.428 279.63 142.596C279.474 142.76 279.38 142.999 279.351 143.313C279.321 143.627 279.367 143.881 279.49 144.075C279.613 144.265 279.799 144.372 280.048 144.396C280.233 144.414 280.393 144.377 280.528 144.287C280.664 144.196 280.757 144.05 280.807 143.848L281.255 143.922C281.205 144.12 281.122 144.29 281.005 144.43C280.889 144.567 280.745 144.669 280.574 144.735C280.406 144.802 280.218 144.825 280.01 144.805ZM281.725 144.906L281.982 142.194L282.361 142.23L282.316 142.918L282.277 142.898C282.333 142.67 282.422 142.508 282.545 142.413C282.671 142.314 282.83 142.274 283.021 142.293L283.287 142.318L283.248 142.727L282.987 142.702C282.851 142.689 282.734 142.704 282.637 142.747C282.544 142.786 282.469 142.853 282.411 142.947C282.358 143.039 282.324 143.159 282.31 143.309L282.155 144.947L281.725 144.906ZM283.604 145.859L283.64 145.48L283.952 145.509C284.048 145.519 284.119 145.51 284.167 145.483C284.217 145.461 284.257 145.418 284.287 145.355L284.409 145.109L284.26 145.095L283.52 142.34L283.99 142.384L284.585 144.723L285.571 142.534L286.042 142.579L284.653 145.529C284.588 145.671 284.501 145.771 284.392 145.83C284.283 145.888 284.138 145.909 283.957 145.892L283.604 145.859ZM286.136 146.098L286.465 142.619L286.864 142.657L286.819 143.241L286.761 143.205C286.848 143.01 286.975 142.869 287.142 142.781C287.312 142.691 287.501 142.655 287.709 142.675C287.979 142.7 288.193 142.788 288.351 142.937C288.512 143.087 288.623 143.273 288.685 143.495C288.75 143.718 288.77 143.954 288.747 144.203C288.723 144.452 288.659 144.68 288.553 144.887C288.451 145.094 288.306 145.256 288.12 145.373C287.937 145.489 287.71 145.535 287.441 145.51C287.301 145.496 287.172 145.46 287.054 145.401C286.939 145.342 286.843 145.265 286.766 145.172C286.692 145.079 286.645 144.973 286.625 144.854L286.693 144.788L286.565 146.139L286.136 146.098ZM287.439 145.096C287.674 145.119 287.868 145.048 288.022 144.883C288.175 144.719 288.267 144.478 288.297 144.161C288.327 143.843 288.282 143.59 288.162 143.399C288.043 143.209 287.865 143.103 287.63 143.08C287.473 143.066 287.333 143.09 287.21 143.154C287.09 143.219 286.991 143.323 286.912 143.467C286.836 143.611 286.788 143.794 286.767 144.016C286.746 144.237 286.759 144.426 286.806 144.582C286.853 144.738 286.931 144.859 287.04 144.945C287.149 145.031 287.282 145.082 287.439 145.096ZM290.115 145.701C289.869 145.678 289.692 145.604 289.583 145.48C289.478 145.357 289.437 145.176 289.459 144.937L289.71 142.286L290.14 142.327L289.89 144.967C289.878 145.09 289.898 145.178 289.948 145.231C289.998 145.284 290.079 145.316 290.192 145.326L290.581 145.363L290.545 145.742L290.115 145.701ZM289.215 143.262L289.251 142.883L290.802 143.03L290.766 143.409L289.215 143.262ZM292.125 145.953C291.869 145.929 291.653 145.85 291.476 145.716C291.303 145.583 291.175 145.406 291.093 145.185C291.014 144.96 290.989 144.705 291.016 144.418C291.043 144.132 291.116 143.887 291.235 143.685C291.357 143.484 291.514 143.333 291.706 143.234C291.902 143.132 292.124 143.093 292.373 143.117C292.608 143.139 292.811 143.215 292.981 143.345C293.152 143.471 293.276 143.645 293.355 143.866C293.438 144.087 293.464 144.349 293.436 144.653L293.423 144.781L291.454 144.594C291.443 144.886 291.499 145.111 291.622 145.271C291.748 145.431 291.928 145.522 292.164 145.544C292.341 145.561 292.49 145.534 292.61 145.463C292.734 145.388 292.825 145.285 292.882 145.153L293.339 145.232C293.245 145.468 293.089 145.654 292.873 145.792C292.661 145.927 292.411 145.981 292.125 145.953ZM291.489 144.215L292.989 144.357C292.993 144.093 292.935 143.893 292.813 143.757C292.695 143.622 292.536 143.545 292.334 143.526C292.126 143.506 291.948 143.555 291.799 143.672C291.654 143.785 291.551 143.966 291.489 144.215ZM294.872 146.214C294.636 146.191 294.437 146.114 294.274 145.982C294.114 145.849 293.999 145.673 293.927 145.453C293.854 145.233 293.832 144.978 293.86 144.688C293.887 144.398 293.957 144.151 294.069 143.949C294.181 143.746 294.328 143.595 294.51 143.495C294.695 143.395 294.905 143.357 295.14 143.379C295.321 143.396 295.483 143.451 295.625 143.544C295.768 143.633 295.871 143.751 295.932 143.898L296.056 142.598L296.485 142.639L296.141 146.272L295.752 146.235L295.776 145.824C295.687 145.964 295.562 146.069 295.4 146.14C295.239 146.207 295.063 146.232 294.872 146.214ZM294.997 145.813C295.158 145.828 295.296 145.8 295.413 145.728C295.533 145.657 295.63 145.549 295.702 145.404C295.774 145.256 295.82 145.08 295.84 144.875C295.86 144.664 295.848 144.48 295.804 144.325C295.76 144.169 295.686 144.047 295.581 143.958C295.479 143.866 295.349 143.812 295.188 143.797C294.95 143.774 294.75 143.846 294.59 144.013C294.433 144.178 294.34 144.417 294.31 144.73C294.281 145.041 294.327 145.293 294.45 145.487C294.576 145.681 294.758 145.79 294.997 145.813Z" fill="#737373"/>
<path opacity="0.3" d="M257.59 120.778L259.156 117.229L259.75 117.27L260.81 121.001L260.328 120.968L260.036 119.907L258.508 119.801L258.072 120.811L257.59 120.778ZM258.687 119.38L259.917 119.466L259.426 117.634L258.687 119.38ZM262.116 121.154C261.873 121.137 261.669 121.083 261.503 120.993C261.341 120.903 261.217 120.786 261.131 120.642C261.048 120.496 261.006 120.333 261.005 120.154L261.459 120.155C261.474 120.321 261.535 120.457 261.641 120.564C261.747 120.668 261.915 120.728 262.144 120.744C262.329 120.756 262.478 120.738 262.591 120.687C262.708 120.633 262.771 120.54 262.781 120.407C262.786 120.335 262.773 120.274 262.742 120.223C262.711 120.173 262.647 120.128 262.55 120.087C262.454 120.042 262.309 119.996 262.117 119.948C261.86 119.882 261.659 119.81 261.514 119.731C261.372 119.649 261.272 119.555 261.214 119.448C261.16 119.337 261.138 119.211 261.148 119.067C261.164 118.824 261.267 118.632 261.456 118.491C261.644 118.346 261.903 118.285 262.231 118.308C262.453 118.323 262.636 118.377 262.781 118.469C262.929 118.559 263.042 118.673 263.118 118.812C263.198 118.948 263.246 119.096 263.262 119.255L262.809 119.254C262.795 119.157 262.763 119.071 262.714 118.995C262.664 118.916 262.596 118.853 262.51 118.806C262.425 118.755 262.32 118.726 262.197 118.717C262.002 118.704 261.856 118.731 261.759 118.8C261.661 118.869 261.608 118.962 261.6 119.078C261.594 119.167 261.609 119.242 261.646 119.303C261.687 119.36 261.754 119.411 261.847 119.456C261.94 119.496 262.066 119.536 262.225 119.575C262.499 119.642 262.71 119.715 262.859 119.794C263.008 119.873 263.11 119.964 263.165 120.067C263.219 120.171 263.242 120.294 263.232 120.438C263.22 120.605 263.162 120.746 263.058 120.859C262.958 120.968 262.825 121.048 262.66 121.099C262.499 121.149 262.317 121.168 262.116 121.154ZM264.652 121.33C264.409 121.313 264.205 121.259 264.04 121.169C263.878 121.079 263.753 120.962 263.667 120.818C263.585 120.672 263.543 120.509 263.541 120.331L263.995 120.331C264.011 120.497 264.072 120.634 264.178 120.74C264.284 120.844 264.451 120.904 264.68 120.92C264.865 120.932 265.014 120.914 265.127 120.863C265.244 120.809 265.308 120.716 265.317 120.583C265.322 120.511 265.309 120.45 265.278 120.4C265.247 120.349 265.183 120.304 265.087 120.263C264.99 120.218 264.846 120.172 264.653 120.124C264.397 120.058 264.196 119.986 264.05 119.907C263.908 119.825 263.808 119.731 263.75 119.624C263.696 119.513 263.674 119.387 263.684 119.243C263.701 119 263.803 118.808 263.992 118.667C264.18 118.522 264.439 118.461 264.767 118.484C264.989 118.499 265.173 118.553 265.317 118.645C265.466 118.735 265.578 118.849 265.654 118.988C265.734 119.124 265.782 119.272 265.799 119.431L265.345 119.43C265.331 119.333 265.3 119.247 265.25 119.171C265.2 119.092 265.133 119.029 265.047 118.982C264.961 118.932 264.856 118.902 264.733 118.893C264.539 118.88 264.392 118.908 264.295 118.976C264.197 119.045 264.145 119.138 264.136 119.254C264.13 119.343 264.146 119.418 264.183 119.479C264.223 119.536 264.29 119.587 264.383 119.632C264.477 119.672 264.603 119.712 264.761 119.751C265.035 119.818 265.246 119.891 265.395 119.97C265.545 120.049 265.646 120.14 265.701 120.243C265.756 120.347 265.778 120.47 265.768 120.614C265.756 120.781 265.699 120.922 265.595 121.035C265.494 121.144 265.362 121.225 265.197 121.275C265.035 121.326 264.854 121.344 264.652 121.33ZM267.26 121.511C267.004 121.493 266.785 121.42 266.605 121.29C266.429 121.161 266.297 120.987 266.209 120.768C266.125 120.546 266.093 120.291 266.113 120.004C266.132 119.717 266.199 119.471 266.313 119.266C266.43 119.061 266.584 118.907 266.773 118.803C266.966 118.696 267.187 118.652 267.437 118.669C267.672 118.685 267.877 118.756 268.05 118.881C268.224 119.003 268.353 119.174 268.437 119.393C268.525 119.612 268.559 119.873 268.537 120.178L268.529 120.306L266.554 120.169C266.551 120.46 266.613 120.685 266.74 120.841C266.87 120.998 267.053 121.084 267.288 121.101C267.466 121.113 267.614 121.082 267.733 121.008C267.855 120.93 267.943 120.825 267.997 120.691L268.456 120.759C268.367 120.997 268.217 121.187 268.004 121.331C267.795 121.471 267.547 121.531 267.26 121.511ZM266.581 119.789L268.083 119.894C268.081 119.629 268.017 119.43 267.893 119.298C267.771 119.166 267.61 119.093 267.408 119.079C267.2 119.065 267.022 119.118 266.877 119.238C266.735 119.355 266.636 119.539 266.581 119.789ZM269.814 121.626C269.568 121.609 269.389 121.54 269.277 121.419C269.169 121.298 269.123 121.118 269.139 120.879L269.324 118.223L269.754 118.253L269.571 120.898C269.562 121.021 269.584 121.109 269.635 121.16C269.686 121.212 269.768 121.242 269.881 121.25L270.271 121.277L270.245 121.656L269.814 121.626ZM268.853 119.21L268.88 118.831L270.433 118.939L270.407 119.318L268.853 119.21Z" fill="#455954"/>
<path opacity="0.4" d="M321.616 125.22L321.803 122.523L321.044 122.471L321.071 122.091L321.378 122.113C321.512 122.122 321.619 122.112 321.7 122.084C321.784 122.055 321.846 122.001 321.886 121.921C321.926 121.842 321.951 121.73 321.961 121.586L322.31 121.611L322.057 125.251L321.616 125.22Z" fill="#455954"/>
<defs>
<filter id="filter0_d_272_27980" x="102.746" y="68.9883" width="133.69" height="127.562" filterUnits="userSpaceOnUse" color-interpolation-filters="sRGB">
<feFlood flood-opacity="0" result="BackgroundImageFix"/>
<feColorMatrix in="SourceAlpha" type="matrix" values="0 0 0 0 0 0 0 0 0 0 0 0 0 0 0 0 0 0 127 0" result="hardAlpha"/>
<feOffset dy="7"/>
<feGaussianBlur stdDeviation="2"/>
<feComposite in2="hardAlpha" operator="out"/>
<feColorMatrix type="matrix" values="0 0 0 0 0 0 0 0 0 0 0 0 0 0 0 0 0 0 0.11 0"/>
<feBlend mode="normal" in2="BackgroundImageFix" result="effect1_dropShadow_272_27980"/>
<feBlend mode="normal" in="SourceGraphic" in2="effect1_dropShadow_272_27980" result="shape"/>
</filter>
<filter id="filter1_d_272_27980" x="147.977" y="83.2675" width="43.2304" height="64.6259" filterUnits="userSpaceOnUse" color-interpolation-filters="sRGB">
<feFlood flood-opacity="0" result="BackgroundImageFix"/>
<feColorMatrix in="SourceAlpha" type="matrix" values="0 0 0 0 0 0 0 0 0 0 0 0 0 0 0 0 0 0 127 0" result="hardAlpha"/>
<feOffset dy="1.69955"/>
<feGaussianBlur stdDeviation="1.10471"/>
<feComposite in2="hardAlpha" operator="out"/>
<feColorMatrix type="matrix" values="0 0 0 0 0 0 0 0 0 0 0 0 0 0 0 0 0 0 0.11 0"/>
<feBlend mode="normal" in2="BackgroundImageFix" result="effect1_dropShadow_272_27980"/>
<feBlend mode="normal" in="SourceGraphic" in2="effect1_dropShadow_272_27980" result="shape"/>
</filter>
<filter id="filter2_d_272_27980" x="161.732" y="118.412" width="15.7196" height="15.7196" filterUnits="userSpaceOnUse" color-interpolation-filters="sRGB">
<feFlood flood-opacity="0" result="BackgroundImageFix"/>
<feColorMatrix in="SourceAlpha" type="matrix" values="0 0 0 0 0 0 0 0 0 0 0 0 0 0 0 0 0 0 127 0" result="hardAlpha"/>
<feOffset dy="1.69955"/>
<feGaussianBlur stdDeviation="1.10471"/>
<feComposite in2="hardAlpha" operator="out"/>
<feColorMatrix type="matrix" values="0 0 0 0 0 0 0 0 0 0 0 0 0 0 0 0 0 0 0.11 0"/>
<feBlend mode="normal" in2="BackgroundImageFix" result="effect1_dropShadow_272_27980"/>
<feBlend mode="normal" in="SourceGraphic" in2="effect1_dropShadow_272_27980" result="shape"/>
</filter>
<linearGradient id="paint0_linear_272_27980" x1="267.679" y1="127.27" x2="-10.513" y2="127.27" gradientUnits="userSpaceOnUse">
<stop stop-color="#E9ECEC"/>
<stop offset="1" stop-color="#8FDCB7" stop-opacity="0.58"/>
</linearGradient>
<linearGradient id="paint1_linear_272_27980" x1="33.0547" y1="127.269" x2="306.128" y2="127.269" gradientUnits="userSpaceOnUse">
<stop stop-color="#E9ECEC"/>
<stop offset="1" stop-color="#8FDCB7" stop-opacity="0.58"/>
</linearGradient>
<clipPath id="clip0_272_27980">
<rect width="8.81092" height="8.81092" fill="white" transform="translate(8.47168 105.66)"/>
</clipPath>
<clipPath id="clip1_272_27980">
<rect width="8.81092" height="8.81092" fill="white" transform="translate(15.9531 126.906) rotate(-2.74422)"/>
</clipPath>
<clipPath id="clip2_272_27980">
<rect width="8.81092" height="8.81092" fill="white" transform="translate(258.908 131.789) rotate(5.41307)"/>
</clipPath>
</defs>
</svg>
